<svg width="18" height="16" viewBox="0 0 18 16" fill="none" xmlns="http://www.w3.org/2000/svg">
<path d="M4.925 16C4.74167 16 4.57083 15.9542 4.4125 15.8625C4.25417 15.7708 4.13333 15.6417 4.05 15.475L2.1 12H3.55L4.55 14H6.85V13H5.15L4.15 11H1.55L0.125 8.5C0.0916667 8.41667 0.0625 8.33333 0.0375 8.25C0.0125 8.16667 0 8.08333 0 8C0 7.93333 0.0416667 7.76667 0.125 7.5L1.55 5H4.15L5.15 3H6.85V2H4.55L3.55 4H2.1L4.05 0.525C4.13333 0.358333 4.25417 0.229167 4.4125 0.1375C4.57083 0.0458333 4.74167 0 4.925 0H7.35C7.63333 0 7.87083 0.0958333 8.0625 0.2875C8.25417 0.479167 8.35 0.716667 8.35 1V5H6.85L5.85 6H8.35V9H6.15L5.15 7H2.85L1.85 8H4.55L5.55 10H8.35V15C8.35 15.2833 8.25417 15.5208 8.0625 15.7125C7.87083 15.9042 7.63333 16 7.35 16H4.925ZM9.4375 15.4125C9.04583 15.0208 8.85 14.55 8.85 14C8.85 13.6167 8.94167 13.2792 9.125 12.9875C9.30833 12.6958 9.55 12.4583 9.85 12.275V3.725C9.55 3.54167 9.30833 3.30417 9.125 3.0125C8.94167 2.72083 8.85 2.38333 8.85 2C8.85 1.45 9.04583 0.979167 9.4375 0.5875C9.82917 0.195833 10.3 0 10.85 0C11.4 0 11.8708 0.195833 12.2625 0.5875C12.6542 0.979167 12.85 1.45 12.85 2C12.85 2.38333 12.7583 2.72083 12.575 3.0125C12.3917 3.30417 12.15 3.54167 11.85 3.725V6.25L13.85 5.05C13.85 4.48333 14.0458 4 14.4375 3.6C14.8292 3.2 15.3 3 15.85 3C16.4 3 16.8708 3.19583 17.2625 3.5875C17.6542 3.97917 17.85 4.45 17.85 5C17.85 5.55 17.6542 6.02083 17.2625 6.4125C16.8708 6.80417 16.4 7 15.85 7C15.6667 7 15.4958 6.97917 15.3375 6.9375C15.1792 6.89583 15.025 6.83333 14.875 6.75L12.6 8.125L15.125 10.125C15.2417 10.075 15.3583 10.0417 15.475 10.025C15.5917 10.0083 15.7167 10 15.85 10C16.4 10 16.8708 10.1958 17.2625 10.5875C17.6542 10.9792 17.85 11.45 17.85 12C17.85 12.55 17.6542 13.0208 17.2625 13.4125C16.8708 13.8042 16.4 14 15.85 14C15.2333 14 14.7292 13.7667 14.3375 13.3C13.9458 12.8333 13.7917 12.3 13.875 11.7L11.85 10.075V12.3C12.15 12.4833 12.3875 12.7208 12.5625 13.0125C12.7375 13.3042 12.825 13.6333 12.825 14C12.825 14.55 12.6333 15.0208 12.25 15.4125C11.8667 15.8042 11.4 16 10.85 16C10.3 16 9.82917 15.8042 9.4375 15.4125Z" fill="white"/>
</svg>
